#!OML:ASF F:\VICON\USERDATA\INSTALL\rory3\rory3.ASF
:FULLY-SPECIFIED
:DEGREES
1776
root 0.356048 17.4678 0.405547 4.41186 2.48506 -0.0626785
lowerback -1.3224 -0.427044 -2.08645
upperback -3.10264 -0.555294 0.97652
thorax -2.41424 -0.215663 2.17685
lowerneck -9.90791 -11.9203 -18.3267
upperneck 18.8305 -17.8077 19.3666
head 11.2585 -7.96 7.41723
rclavicle 2.25496e-015 -8.34896e-015
rhumerus -19.6223 -5.80115 -74.5806
rradius 24.0106
rwrist 36.9163
rhand -4.34576 7.26182
rfingers 7.12502
rthumb 21.4219 -21.5739
lclavicle 2.25496e-015 -8.34896e-015
lhumerus -10.8177 -7.57303 84.8403
lradius 12.164
lwrist -13.7664
lhand -3.59363 31.4844
lfingers 7.12502
lthumb 22.1441 60.2362
rfemur 0 0 0
rtibia 0
rfoot 0 0
rtoes 0
lfemur -6.35956 -17.3049 -18.2554
ltibia 14.7899
lfoot -12.808 10.8083
ltoes -16.6367
1777
root 0.354884 17.4675 0.406147 4.4279 2.62274 -0.0170609
lowerback -1.26397 -0.466667 -2.14209
upperback -3.05942 -0.609517 0.964621
thorax -2.3993 -0.242269 2.19648
lowerneck -9.86569 -11.9083 -18.2893
upperneck 18.4583 -17.7911 19.5808
head 11.1321 -7.94175 7.48569
rclavicle -3.27995e-015 5.96354e-015
rhumerus -20.4234 -5.46637 -75.2593
rradius 24.0952
rwrist 36.4536
rhand -3.63085 7.33155
rfingers 7.12502
rthumb 22.1084 -21.4245
lclavicle -3.27995e-015 5.96354e-015
lhumerus -11.905 -7.71179 85.3182
lradius 12.7028
lwrist -14.8069
lhand -2.43419 31.0068
lfingers 7.12502
lthumb 23.2569 59.6223
rfemur 0 0 0
rtibia 0
rfoot 0 0
rtoes 0
lfemur -6.39501 -17.4402 -18.2652
ltibia 14.7726
lfoot -12.8167 10.8431
ltoes -16.6444
1778
root 0.354919 17.4667 0.404643 4.4909 2.6244 0.0481709
lowerback -1.17382 -0.464395 -2.20634
upperback -3.06631 -0.608798 0.952567
thorax -2.45679 -0.239733 2.2211
lowerneck -9.88764 -11.917 -18.2767
upperneck 18.2286 -17.8014 19.7388
head 11.073 -7.93568 7.53313
rclavicle 2.98177e-016 4.77083e-015
rhumerus -21.3002 -5.04173 -75.9445
rradius 24.2231
rwrist 35.8975
rhand -2.78429 7.29126
rfingers 7.12502
rthumb 22.921 -21.3663
lclavicle 2.98177e-016 4.77083e-015
lhumerus -12.9388 -7.82533 85.9774
lradius 12.946
lwrist -15.7839
lhand -1.70648 30.3687
lfingers 7.12502
lthumb 23.9549 58.8943
rfemur 0 0 0
rtibia 0
rfoot 0 0
rtoes 0
lfemur -6.45664 -17.4433 -18.3198
ltibia 14.7565
lfoot -12.5732 10.917
ltoes -18.0746
1779
root 0.356188 17.467 0.403038 4.59433 2.52739 0.107974
lowerback -1.11268 -0.398553 -2.23817
upperback -3.08638 -0.523278 0.909653
thorax -2.51672 -0.195767 2.1947
lowerneck -9.8855 -11.9811 -18.2767
upperneck 18.002 -17.8994 19.9112
head 11.0339 -7.97081 7.57118
rclavicle 5.92006e-015 -1.35174e-014
rhumerus -22.2239 -4.73479 -76.6488
rradius 24.3451
rwrist 35.4631
rhand -2.00904 7.2296
rfingers 7.12502
rthumb 23.6647 -21.3338
lclavicle 5.92006e-015 -1.35174e-014
lhumerus -13.933 -8.02662 86.7386
lradius 13.1335
lwrist -16.4561
lhand -1.36531 29.5708
lfingers 7.12502
lthumb 24.282 58.053
rfemur 0 0 0
rtibia 0
rfoot 0 0
rtoes 0
lfemur -6.54843 -17.3485 -18.3833
ltibia 14.7318
lfoot -12.4193 10.9362
ltoes -18.6988
1780
root 0.35614 17.4677 0.400768 4.71406 2.45941 0.102931
lowerback -1.0924 -0.342332 -2.22247
upperback -3.09153 -0.449002 0.889963
thorax -2.53771 -0.158932 2.16504
lowerneck -9.85777 -12.0508 -18.3088
upperneck 17.7141 -18.0109 20.1575
head 10.9837 -8.01167 7.63938
rclavicle -1.4971e-015 9.0447e-015
rhumerus -23.1166 -4.1036 -77.4336
rradius 24.4071
rwrist 34.9535
rhand -1.41812 7.03749
rfingers 7.12502
rthumb 24.2314 -21.4515
lclavicle -1.4971e-015 9.0447e-015
lhumerus -14.8866 -8.21325 87.4753
lradius 13.393
lwrist -17.19
lhand -0.21339 29.4915
lfingers 7.12502
lthumb 25.386 57.8214
rfemur 0 0 0
rtibia 0
rfoot 0 0
rtoes 0
lfemur -6.68256 -17.2745 -18.3505
ltibia 14.7108
lfoot -12.3371 10.9605
ltoes -19.0702
1781
root 0.355099 17.4685 0.400235 4.82027 2.47153 0.101224
lowerback -1.10363 -0.32584 -2.21543
upperback -3.05497 -0.426842 0.874276
thorax -2.49497 -0.149176 2.14442
lowerneck -9.96881 -12.1251 -18.3288
upperneck 17.4882 -18.116 20.3872
head 10.9794 -8.0402 7.69609
rclavicle 1.79838e-015 -9.54166e-015
rhumerus -23.967 -3.26439 -78.3201
rradius 24.4764
rwrist 34.2298
rhand -0.874172 6.92486
rfingers 7.12502
rthumb 24.7528 -21.4935
lclavicle 1.79838e-015 -9.54166e-015
lhumerus -15.7484 -8.35697 88.1941
lradius 13.5626
lwrist -18.0954
lhand 1.31793 29.4116
lfingers 7.12502
lthumb 26.8521 57.5248
rfemur 0 0 0
rtibia 0
rfoot 0 0
rtoes 0
lfemur -6.80755 -17.2793 -18.3041
ltibia 14.6996
lfoot -12.2673 11.0109
ltoes -19.5495
